<?xml version="1.0" encoding="UTF-8"?>
<svg version="1.1" xmlns="http://www.w3.org/2000/svg" width="1024" height="1024">
<path d="M0 0 C50.93173666 -0.20596516 101.86343127 -0.36456929 152.79550242 -0.45958797 C158.80743524 -0.47084443 164.81936723 -0.48249332 170.83129883 -0.49438477 C172.02817456 -0.49674556 173.22505029 -0.49910635 174.45819498 -0.50153869 C193.84212196 -0.54070879 213.2258089 -0.61167443 232.60959344 -0.69437516 C252.49671016 -0.77851619 272.3837011 -0.8285242 292.27098852 -0.84679645 C304.54429596 -0.85915039 316.81692497 -0.89817873 329.09002358 -0.9712482 C337.50428252 -1.01879407 345.91819034 -1.03320732 354.33257388 -1.0215124 C359.18871828 -1.01574317 364.04367663 -1.02463241 368.89961052 -1.07284927 C373.34727775 -1.1166897 377.79296312 -1.11883679 382.24072213 -1.08809005 C383.84791023 -1.08429106 385.45522262 -1.09567881 387.06216656 -1.12394864 C399.04726661 -1.3225009 399.04726661 -1.3225009 403.91487229 1.97411549 C406.180185 4.20624833 408.10995449 6.44757092 410 9 C411.23556641 10.43472656 411.23556641 10.43472656 412.49609375 11.8984375 C413.13675781 12.71570313 413.77742187 13.53296875 414.4375 14.375 C417.49775945 18.20165486 420.66137704 21.8511894 424 25.4375 C428.60821297 30.46335439 432.72575678 35.71590237 436.71923828 41.23925781 C438.12995668 43.17865947 439.56253327 45.10086506 440.99609375 47.0234375 C464.49526506 78.76197448 482.71853255 113.84661393 496 151 C496.30131836 151.83660156 496.60263672 152.67320312 496.91308594 153.53515625 C502.27319333 168.66214956 508.52084591 186.89810418 508 203 C508.89585815 202.75092896 508.89585815 202.75092896 509.80981445 202.49682617 C520.16822298 199.64155399 530.49823801 196.84679156 541.125 195.1875 C541.83180908 195.07623779 542.53861816 194.96497559 543.2668457 194.8503418 C603.79532533 186.0577543 667.00730529 200.71651857 724 220 C722.44875555 223.28182107 720.87537291 225.22901884 718.1875 227.6875 C701.73080445 243.85409354 689.83379261 264.81105339 679 285 C678.49774902 285.93215332 677.99549805 286.86430664 677.47802734 287.82470703 C663.87798465 313.19780115 652.31216356 339.22615019 641.88833618 366.04586792 C634.57005247 384.87125827 626.935733 403.38575513 617 421 C616.39937744 422.07121094 616.39937744 422.07121094 615.78662109 423.1640625 C599.51242971 452.00274237 579.25231407 478.26409384 557.03515625 502.75390625 C552.02254215 508.28606193 547.17080504 513.95762203 542.3125 519.625 C541.53700806 520.52883423 541.53700806 520.52883423 540.74584961 521.45092773 C538.19221148 524.42997563 535.64673496 527.41513665 533.12109375 530.41796875 C521.72059938 543.93118307 509.47472203 556.60428215 497 569.125 C496.12802979 570.00164307 495.25605957 570.87828613 494.35766602 571.78149414 C489.39830565 576.72848583 484.3246443 581.45073528 479 586 C477.82025555 587.03360712 476.6418432 588.06873689 475.46484375 589.10546875 C457.37167607 604.94906444 438.45859341 619.33009766 418 632 C417.39881348 632.37801758 416.79762695 632.75603516 416.17822266 633.14550781 C406.95292164 638.91821893 397.40620091 643.92140252 387.625 648.6875 C386.56321533 649.20989258 385.50143066 649.73228516 384.4074707 650.27050781 C368.50225659 657.88968603 351.99266652 663.14384901 334.9375 667.5 C334.03269897 667.73367279 333.12789795 667.96734558 332.19567871 668.20809937 C292.40130094 678.46700338 251.97323159 685.64633007 211 689 C210.00637451 689.0942627 209.01274902 689.18852539 207.98901367 689.28564453 C174.44865067 692.17834883 139.39349458 691.42115147 106 687 C105.26426758 686.90289734 104.52853516 686.80579468 103.77050781 686.70574951 C29.87632778 676.80752517 -43.45922795 650.40519411 -98.78515625 598.96875 C-100.83679121 596.97328212 -100.83679121 596.97328212 -103 596 C-103 595.34 -103 594.68 -103 594 C-103.99 593.67 -104.98 593.34 -106 593 C-108.78678438 591.09971721 -110.45736835 588.99591135 -112 586 C-112.89135987 580.77793821 -112.7847774 575.59158622 -112.7215271 570.31434631 C-112.72414462 568.69550182 -112.72940009 567.0766598 -112.7370621 565.45783132 C-112.75046904 561.01530486 -112.72649259 556.57364742 -112.69639373 552.13123167 C-112.67047652 547.33853608 -112.67925164 542.54588926 -112.68380737 537.75314331 C-112.68695309 529.4514054 -112.66813242 521.14995049 -112.63438034 512.84828377 C-112.5856125 500.84552546 -112.56999109 488.84290395 -112.56245239 476.84005731 C-112.54932148 457.36619436 -112.50939414 437.89248223 -112.45263672 418.41870117 C-112.3975604 399.50204218 -112.35509089 380.58542416 -112.32958984 361.66870117 C-112.3280135 360.50262497 -112.32643716 359.33654876 -112.32481305 358.13513691 C-112.31698281 352.28525975 -112.30940057 346.4353823 -112.30194163 340.58550465 C-112.23974397 292.05689887 -112.13406731 243.52845679 -112 195 C-110.72988459 195.93567737 -109.46211273 196.87453639 -108.1953125 197.81469727 C-107.48906738 198.33717545 -106.78282227 198.85965363 -106.05517578 199.39796448 C-103.12158889 201.68473258 -100.56693316 204.25420861 -98 206.9375 C-94.18225076 210.89684159 -90.23249986 214.58888171 -86.0703125 218.18579102 C-81.93971693 221.80542022 -77.98665073 225.61811405 -74 229.39453125 C-70.00658025 233.16176121 -65.94922066 236.8333679 -61.80371094 240.43261719 C-59.55391323 242.38763901 -57.33696862 244.37733976 -55.125 246.375 C-54.27808594 247.138125 -53.43117187 247.90125 -52.55859375 248.6875 C-50.90225545 250.18452637 -49.24843827 251.68434889 -47.59765625 253.1875 C-41.97633206 258.28951223 -36.22968722 263.22649823 -30.421875 268.11328125 C-26.92906994 271.05369378 -23.46299221 274.02458402 -20 277 C-9.76251426 285.78633596 0.52892585 294.49225225 11 303 C12.25015432 304.02064434 13.50014375 305.04149067 14.75 306.0625 C22.7963729 312.62826978 30.89323581 319.12159201 39.08398438 325.50634766 C41.20848739 327.16252878 43.3307183 328.8216022 45.453125 330.48046875 C53.90272014 337.07702801 62.38399626 343.62150464 71 350 C71.68642578 350.50998535 72.37285156 351.0199707 73.08007812 351.54541016 C84.27445139 359.85965439 95.5555672 368.03326385 107 376 C107.64469238 376.44907715 108.28938477 376.8981543 108.95361328 377.36083984 C119.66396319 384.80620355 130.49834046 392.06543529 141.37695312 399.26220703 C143.0600142 400.37725066 144.74117841 401.4951658 146.41992188 402.61669922 C158.30303951 410.5544437 170.47300594 417.91419911 182.82617188 425.08911133 C183.41875793 425.43340683 184.01134399 425.77770233 184.62188721 426.13243103 C186.34719768 427.13171595 188.07639461 428.1242811 189.80566406 429.11669922 C191.84712527 430.32029382 193.863385 431.56842231 195.84277344 432.87158203 C200.83661099 436.19012486 200.83661099 436.19012486 206.65625 437.06640625 C210.3731346 435.88099796 213.95365047 434.55458232 217.5 432.9375 C218.1899707 432.62804443 218.87994141 432.31858887 219.59082031 431.99975586 C242.74110738 421.45556474 262.87162145 406.63452615 282 390 C282.71285156 389.38769531 283.42570312 388.77539062 284.16015625 388.14453125 C289.66876554 383.3824686 295.05898298 378.48515938 300.37841797 373.51318359 C301.49061362 372.47533526 302.60705877 371.44202769 303.72705078 370.41259766 C305.43807322 368.83271372 307.1270942 367.23213696 308.8125 365.625 C309.34649414 365.13749268 309.88048828 364.64998535 310.43066406 364.14770508 C312.09865221 362.59577211 312.09865221 362.59577211 314 360 C313.65678709 356.04557234 312.13859428 352.9443519 310.33203125 349.44921875 C309.77539795 348.36995117 309.21876465 347.29068359 308.64526367 346.17871094 C308.04045166 345.02661133 307.43563965 343.87451172 306.8125 342.6875 C306.50309479 342.0944104 306.19368958 341.5013208 305.87490845 340.89025879 C299.32782149 328.35152404 292.2576452 316.14006107 285 304 C284.1570615 302.57841578 283.31456517 301.15656921 282.47265625 299.734375 C280.33923298 296.14138584 278.1786229 292.56574245 276 289 C275.6302002 288.39381836 275.26040039 287.78763672 274.87939453 287.16308594 C251.21979419 248.51274685 224.48492956 211.69016598 195.53076172 176.85107422 C194.1671429 175.20211762 192.81576432 173.5445782 191.47265625 171.87890625 C186.93901448 166.26165238 182.22516673 160.86907582 177.33984375 155.5546875 C175.34165152 153.37302185 173.37851111 151.16988691 171.4375 148.9375 C167.3460674 144.24132909 163.19899524 139.60036979 159 135 C158.51660156 134.47003418 158.03320312 133.94006836 157.53515625 133.39404297 C148.94305941 124.01183747 140.04691167 114.94179014 131.0625 105.9375 C130.25546631 105.12658401 130.25546631 105.12658401 129.43212891 104.29928589 C124.03705064 98.88373118 118.62733732 93.53815418 112.81274414 88.56762695 C109.67638267 85.85536069 106.69651254 82.97671779 103.6875 80.125 C98.52415312 75.2697119 93.27022585 70.62611475 87.73046875 66.19921875 C85.22349046 64.18000733 82.76834642 62.11520866 80.32250977 60.02319336 C62.73118574 44.97981383 44.14991507 30.9912652 25 18 C23.65549448 17.07531633 22.31178988 16.14946737 20.96875 15.22265625 C14.49158151 10.75404001 8.01833316 6.29168521 1.40625 2.0234375 C0.71015625 1.51683594 0.71015625 1.51683594 0 1 C0 0.67 0 0.34 0 0 Z " fill="#FEFEFE" transform="translate(206,167)"/>
</svg>
